<svg width="22" height="22" viewBox="0 0 22 22" fill="none" xmlns="http://www.w3.org/2000/svg">
<path d="M11.833 4.5C11.5235 4.5 11.2266 4.62837 11.0078 4.85687C10.7889 5.08536 10.666 5.39527 10.666 5.71842C10.666 6.04156 10.7889 6.35147 11.0078 6.57997C11.2266 6.80847 11.5235 6.93683 11.833 6.93683C12.1425 6.93683 12.4393 6.80847 12.6582 6.57997C12.877 6.35147 13 6.04156 13 5.71842C13 5.39527 12.877 5.08536 12.6582 4.85687C12.4393 4.62837 12.1425 4.5 11.833 4.5ZM11.5529 8.37457C10.6271 8.45579 8.09853 10.5596 8.09853 10.5596C7.94292 10.6814 7.98961 10.6733 8.11409 10.9008C8.23857 11.1201 8.22301 11.1363 8.37083 11.0307C8.52643 10.9251 8.78318 10.7545 9.21108 10.4784C10.8605 9.37367 9.47561 11.9242 8.76762 16.2212C8.48753 18.3493 10.3236 17.2528 10.7982 16.9279C11.265 16.6111 12.5176 15.7094 12.6421 15.6201C12.8133 15.4982 12.6888 15.4008 12.5565 15.1977C12.4632 15.0596 12.3698 15.1571 12.3698 15.1571C11.8641 15.5064 10.9383 16.2374 10.8138 15.7744C10.666 15.3114 11.6151 12.1354 12.1364 9.95039C12.222 9.43053 12.4554 8.29334 11.5529 8.37457Z" fill="#F7931A"/>
<path fill-rule="evenodd" clip-rule="evenodd" d="M11 20C15.9706 20 20 15.9706 20 11C20 6.02944 15.9706 2 11 2C6.02944 2 2 6.02944 2 11C2 15.9706 6.02944 20 11 20ZM11 21.5C16.799 21.5 21.5 16.799 21.5 11C21.5 5.20101 16.799 0.5 11 0.5C5.20101 0.5 0.5 5.20101 0.5 11C0.5 16.799 5.20101 21.5 11 21.5Z" fill="#F7931A"/>
</svg>
