<svg width="24" height="24" viewBox="0 0 24 24" fill="none" xmlns="http://www.w3.org/2000/svg">
<path fill-rule="evenodd" clip-rule="evenodd" d="M2 4.5C2 3.11928 3.11928 2 4.5 2H19.5C20.8807 2 22 3.11928 22 4.5V14.4547C21.0165 13.1622 19.4619 12.3278 17.7123 12.3278C14.7384 12.3278 12.3278 14.7384 12.3278 17.7123C12.3278 19.4619 13.1622 21.0165 14.4547 22H4.5C3.11928 22 2 20.8807 2 19.5V4.5ZM10.9429 15.676L16.4202 9.15546C16.5285 9.0227 16.5802 8.85262 16.5641 8.68213C16.548 8.51154 16.4654 8.35417 16.3343 8.244C16.2031 8.13383 16.0338 8.07971 15.8631 8.09324C15.7583 8.10158 15.6581 8.13505 15.5705 8.18958C15.5152 8.22396 15.465 8.26668 15.4217 8.31673L10.4257 14.2632L8.57989 12.2124C8.54215 12.1684 8.49862 12.1296 8.45081 12.0972C8.427 12.0812 8.40218 12.0666 8.37634 12.0537C8.29852 12.015 8.21379 11.9921 8.12712 11.9865C8.04034 11.9809 7.95337 11.9927 7.87128 12.0213C7.78918 12.0497 7.7136 12.0944 7.64901 12.1525C7.60801 12.1894 7.572 12.2312 7.54169 12.2769C7.52419 12.3032 7.50863 12.3309 7.4951 12.3597C7.45817 12.4384 7.43722 12.5237 7.43365 12.6105C7.43009 12.6973 7.44393 12.784 7.47434 12.8654C7.50476 12.9468 7.55115 13.0213 7.61076 13.0845L9.95817 15.6928C10.0193 15.7608 10.0941 15.8151 10.1775 15.8523C10.2232 15.8726 10.2708 15.8876 10.3196 15.897C10.3601 15.9048 10.4013 15.9088 10.4428 15.9088H10.4538C10.5472 15.9073 10.6392 15.8858 10.7237 15.8456C10.781 15.8183 10.834 15.7828 10.881 15.7403C10.903 15.7204 10.9236 15.6989 10.9429 15.676Z" fill="black"/>
<path fill-rule="evenodd" clip-rule="evenodd" d="M17.7123 21.9996C20.0802 21.9996 21.9998 20.08 21.9998 17.7121C21.9998 15.3441 20.0802 13.4246 17.7123 13.4246C15.3443 13.4246 13.4248 15.3441 13.4248 17.7121C13.4248 20.08 15.3443 21.9996 17.7123 21.9996ZM17.2859 18.6214H18.1384L18.4811 15.1321H16.9433L17.2859 18.6214ZM18.3668 19.6494C18.3668 20.0138 18.0737 20.3092 17.7121 20.3092C17.3506 20.3092 17.0575 20.0138 17.0575 19.6494C17.0575 19.2851 17.3506 18.9897 17.7121 18.9897C18.0737 18.9897 18.3668 19.2851 18.3668 19.6494Z" fill="black"/>
</svg>
