<svg width="22" height="22" viewBox="0 0 22 22" fill="none" xmlns="http://www.w3.org/2000/svg">
<path fill-rule="evenodd" clip-rule="evenodd" d="M2.96154 2.25C2.77283 2.25 2.59184 2.32497 2.4584 2.4584C2.32497 2.59184 2.25 2.77283 2.25 2.96154V5.88462C2.25 6.29883 1.91421 6.63462 1.5 6.63462C1.08579 6.63462 0.75 6.29883 0.75 5.88462V2.96154C0.75 2.375 0.983001 1.81249 1.39774 1.39774C1.81249 0.983001 2.375 0.75 2.96154 0.75H5.88462C6.29883 0.75 6.63462 1.08579 6.63462 1.5C6.63462 1.91421 6.29883 2.25 5.88462 2.25H2.96154ZM15.3654 1.5C15.3654 1.08579 15.7012 0.75 16.1154 0.75H19.0385C19.625 0.75 20.1875 0.983001 20.6023 1.39774C21.017 1.81249 21.25 2.375 21.25 2.96154V5.88462C21.25 6.29883 20.9142 6.63462 20.5 6.63462C20.0858 6.63462 19.75 6.29883 19.75 5.88462V2.96154C19.75 2.77283 19.675 2.59184 19.5416 2.4584C19.4082 2.32497 19.2272 2.25 19.0385 2.25H16.1154C15.7012 2.25 15.3654 1.91421 15.3654 1.5ZM6.61538 5.13462C7.0296 5.13462 7.36538 5.4704 7.36538 5.88462V8.80769C7.36538 9.2219 7.0296 9.55769 6.61538 9.55769C6.20117 9.55769 5.86538 9.2219 5.86538 8.80769V5.88462C5.86538 5.4704 6.20117 5.13462 6.61538 5.13462ZM15.3846 5.13462C15.7988 5.13462 16.1346 5.4704 16.1346 5.88462V8.80769C16.1346 9.2219 15.7988 9.55769 15.3846 9.55769C14.9704 9.55769 14.6346 9.2219 14.6346 8.80769V5.88462C14.6346 5.4704 14.9704 5.13462 15.3846 5.13462ZM11 6.59615C11.4142 6.59615 11.75 6.93194 11.75 7.34615V12.4615C11.75 12.8758 11.4142 13.2115 11 13.2115H8.80769C8.39348 13.2115 8.05769 12.8758 8.05769 12.4615C8.05769 12.0473 8.39348 11.7115 8.80769 11.7115H10.25V7.34615C10.25 6.93194 10.5858 6.59615 11 6.59615ZM6.80237 14.8681C7.08764 14.5678 7.56236 14.5556 7.86268 14.8408C8.70928 15.645 9.83235 16.0934 11 16.0934C12.1677 16.0934 13.2907 15.645 14.1373 14.8408C14.4376 14.5556 14.9124 14.5678 15.1976 14.8681C15.4829 15.1684 15.4707 15.6431 15.1704 15.9284C14.045 16.9974 12.5521 17.5934 11 17.5934C9.44786 17.5934 7.95499 16.9974 6.82962 15.9284C6.5293 15.6431 6.5171 15.1684 6.80237 14.8681ZM1.5 15.3654C1.91421 15.3654 2.25 15.7012 2.25 16.1154V19.0385C2.25 19.2272 2.32497 19.4082 2.4584 19.5416C2.59184 19.675 2.77283 19.75 2.96154 19.75H5.88462C6.29883 19.75 6.63462 20.0858 6.63462 20.5C6.63462 20.9142 6.29883 21.25 5.88462 21.25H2.96154C2.375 21.25 1.81249 21.017 1.39774 20.6023C0.983001 20.1875 0.75 19.625 0.75 19.0385V16.1154C0.75 15.7012 1.08579 15.3654 1.5 15.3654ZM20.5 15.3654C20.9142 15.3654 21.25 15.7012 21.25 16.1154V19.0385C21.25 19.625 21.017 20.1875 20.6023 20.6023C20.1875 21.017 19.625 21.25 19.0385 21.25H16.1154C15.7012 21.25 15.3654 20.9142 15.3654 20.5C15.3654 20.0858 15.7012 19.75 16.1154 19.75H19.0385C19.2272 19.75 19.4082 19.675 19.5416 19.5416C19.675 19.4082 19.75 19.2272 19.75 19.0385V16.1154C19.75 15.7012 20.0858 15.3654 20.5 15.3654Z" fill="#F7931A"/>
</svg>
