<svg width="22" height="22" viewBox="0 0 22 22" fill="none" xmlns="http://www.w3.org/2000/svg">
<path fill-rule="evenodd" clip-rule="evenodd" d="M10.9999 0.243286C10.2573 0.243286 9.65532 0.84528 9.65532 1.58788L9.65533 9.65547L1.58776 9.65547C0.845158 9.65547 0.243163 10.2575 0.243164 11.0001C0.243164 11.7427 0.845159 12.3447 1.58776 12.3447L9.65533 12.3447L9.65533 20.4122C9.65533 21.1548 10.2573 21.7568 10.9999 21.7568C11.7425 21.7568 12.3445 21.1548 12.3445 20.4122L12.3445 12.3447L20.4121 12.3447C21.1547 12.3447 21.7566 11.7427 21.7566 11.0001C21.7566 10.2575 21.1546 9.65548 20.4121 9.65548L12.3445 9.65547L12.3445 1.58788C12.3445 0.845282 11.7425 0.243287 10.9999 0.243286Z" fill="#F7931A"/>
</svg>
