<svg width="12" height="23" viewBox="0 0 12 23" fill="none" xmlns="http://www.w3.org/2000/svg">
<path d="M9.90165 5.0701V16.7313C9.90165 17.8071 9.46241 18.8387 8.68054 19.5994C7.89868 20.3601 6.83825 20.7874 5.73253 20.7874C4.62682 20.7874 3.56639 20.3601 2.78452 19.5994C2.00266 18.8387 1.56342 17.8071 1.56342 16.7313V4.05608C1.56342 3.38374 1.83795 2.73894 2.32661 2.26353C2.81527 1.78811 3.47804 1.52103 4.16912 1.52103C4.86019 1.52103 5.52296 1.78811 6.01162 2.26353C6.50029 2.73894 6.77481 3.38374 6.77481 4.05608V14.7033C6.77481 14.9722 6.665 15.2301 6.46954 15.4203C6.27407 15.6105 6.00896 15.7173 5.73253 15.7173C5.4561 15.7173 5.191 15.6105 4.99553 15.4203C4.80007 15.2301 4.69026 14.9722 4.69026 14.7033V5.0701H3.12684V14.7033C3.12684 15.3756 3.40137 16.0204 3.89003 16.4958C4.37869 16.9712 5.04146 17.2383 5.73253 17.2383C6.42361 17.2383 7.08638 16.9712 7.57504 16.4958C8.0637 16.0204 8.33823 15.3756 8.33823 14.7033V4.05608C8.33823 2.98034 7.89899 1.94866 7.11713 1.188C6.33527 0.427335 5.27483 0 4.16912 0C3.0634 0 2.00297 0.427335 1.22111 1.188C0.439245 1.94866 0 2.98034 0 4.05608V16.7313C0 18.2105 0.603961 19.629 1.67902 20.6749C2.75408 21.7208 4.21217 22.3084 5.73253 22.3084C7.2529 22.3084 8.71099 21.7208 9.78605 20.6749C10.8611 19.629 11.4651 18.2105 11.4651 16.7313V5.0701H9.90165Z" fill="#F7931A"/>
</svg>
