<svg width="164" height="164" viewBox="0 0 164 164" fill="none" xmlns="http://www.w3.org/2000/svg">
<rect width="164" height="164" rx="82" fill="white"/>
<path fill-rule="evenodd" clip-rule="evenodd" d="M82 36.5C70.0029 36.5 60.2805 46.2341 60.2805 58.2379C60.2805 70.2417 70.0029 79.9758 82 79.9758C93.9971 79.9758 103.72 70.2417 103.72 58.2379C103.72 46.2341 93.9971 36.5 82 36.5ZM68.5829 58.2379C68.5829 50.8182 74.5917 44.8065 82 44.8065C89.4083 44.8065 95.4171 50.8182 95.4171 58.2379C95.4171 65.6576 89.4083 71.6694 82 71.6694C74.5917 71.6694 68.5829 65.6576 68.5829 58.2379Z" fill="#D8D8D8"/>
<path fill-rule="evenodd" clip-rule="evenodd" d="M58.5756 84.0242C51.2615 84.0242 44.2473 86.9324 39.076 92.1085C33.9048 97.2846 31 104.304 31 111.624C31 115.834 32.6709 119.872 35.6456 122.849C38.6205 125.827 42.6556 127.5 46.8634 127.5H117.137C121.344 127.5 125.38 125.827 128.354 122.849C131.329 119.872 133 115.834 133 111.624C133 104.304 130.095 97.2846 124.924 92.1085C119.753 86.9324 112.738 84.0242 105.424 84.0242H58.5756ZM44.9481 97.9808C48.5626 94.3628 53.4646 92.3306 58.5756 92.3306H105.424C110.535 92.3306 115.437 94.3628 119.052 97.9808C122.667 101.599 124.698 106.506 124.698 111.624C124.698 113.632 123.901 115.558 122.482 116.977C121.064 118.396 119.141 119.194 117.137 119.194H46.8634C44.8587 119.194 42.9358 118.396 41.5177 116.977C40.0995 115.558 39.3024 113.632 39.3024 111.624C39.3024 106.506 41.3335 101.599 44.9481 97.9808Z" fill="#D8D8D8"/>
</svg>
