<svg width="17" height="13" viewBox="0 0 17 13" fill="none" xmlns="http://www.w3.org/2000/svg">
<path d="M15 5.00001H5.62133L7.21751 3.40383C7.8033 2.81804 7.8033 1.8683 7.21751 1.28251C6.63173 0.696724 5.68198 0.696724 5.09619 1.28251L1.56066 4.81804C1.45253 4.92618 1.36436 5.04671 1.29615 5.17507C0.82247 5.42722 0.5 5.92596 0.5 6.50001C0.5 7.07407 0.822477 7.57281 1.29616 7.82497C1.36437 7.95332 1.45254 8.07386 1.56068 8.18199L5.09621 11.7175C5.682 12.3033 6.63175 12.3033 7.21753 11.7175C7.80332 11.1317 7.80332 10.182 7.21753 9.59621L5.62134 8.00001H15C15.8284 8.00001 16.5 7.32844 16.5 6.50001C16.5 5.67158 15.8284 5.00001 15 5.00001Z" fill="#151515"/>
</svg>
