<svg width="31" height="28" viewBox="0 0 31 28" fill="none" xmlns="http://www.w3.org/2000/svg">
<path id="Vector" fill-rule="evenodd" clip-rule="evenodd" d="M1.0814 0C0.794591 0 0.519534 0.111951 0.316733 0.311226C0.113932 0.510501 0 0.780775 0 1.06259C0 1.34441 0.113932 1.61468 0.316733 1.81396C0.519534 2.01323 0.794591 2.12518 1.0814 2.12518H3.96512V15.6229C3.96512 17.5214 3.96512 18.4707 4.35153 19.308C4.73795 20.1453 5.46465 20.7701 6.91949 22.0211L9.80321 24.5005C12.5182 26.834 13.875 28 15.5 28C17.125 28 18.4832 26.834 21.1968 24.5005L24.0805 22.0211C25.5339 20.7701 26.262 20.1453 26.647 19.308C27.0349 18.4721 27.0349 17.5228 27.0349 15.6243V2.12518H29.9186C30.2054 2.12518 30.4805 2.01323 30.6833 1.81396C30.8861 1.61468 31 1.34441 31 1.06259C31 0.780775 30.8861 0.510501 30.6833 0.311226C30.4805 0.111951 30.2054 0 29.9186 0H1.0814ZM10.4535 15.5847C10.1667 15.5847 9.89163 15.6966 9.68883 15.8959C9.48602 16.0952 9.37209 16.3655 9.37209 16.6473C9.37209 16.9291 9.48602 17.1994 9.68883 17.3986C9.89163 17.5979 10.1667 17.7099 10.4535 17.7099H20.5465C20.8333 17.7099 21.1084 17.5979 21.3112 17.3986C21.514 17.1994 21.6279 16.9291 21.6279 16.6473C21.6279 16.3655 21.514 16.0952 21.3112 15.8959C21.1084 15.6966 20.8333 15.5847 20.5465 15.5847H10.4535ZM9.37209 9.56332C9.37209 9.28151 9.48602 9.01123 9.68883 8.81196C9.89163 8.61269 10.1667 8.50073 10.4535 8.50073H20.5465C20.8333 8.50073 21.1084 8.61269 21.3112 8.81196C21.514 9.01123 21.6279 9.28151 21.6279 9.56332C21.6279 9.84514 21.514 10.1154 21.3112 10.3147C21.1084 10.514 20.8333 10.6259 20.5465 10.6259H10.4535C10.1667 10.6259 9.89163 10.514 9.68883 10.3147C9.48602 10.1154 9.37209 9.84514 9.37209 9.56332Z" fill="#151515"/>
</svg>
