<svg width="25" height="28" viewBox="0 0 25 28" fill="none" xmlns="http://www.w3.org/2000/svg">
<path fill-rule="evenodd" clip-rule="evenodd" d="M5.89583 0H19.1042C20.7139 0 21.5181 1.46028e-07 22.1681 0.228195C22.7809 0.447133 23.3354 0.805562 23.7885 1.27563C24.2416 1.74569 24.5811 2.31474 24.7806 2.93854C25 3.61332 25 4.4477 25 6.11787V25.723C25 26.9242 23.6319 27.5626 22.7667 26.7646C22.5239 26.5385 22.2055 26.4129 21.875 26.4129C21.5445 26.4129 21.2261 26.5385 20.9833 26.7646L20.3125 27.3834C19.8872 27.7798 19.3293 28 18.75 28C18.1707 28 17.6128 27.7798 17.1875 27.3834C16.7622 26.987 16.2043 26.7668 15.625 26.7668C15.0457 26.7668 14.4878 26.987 14.0625 27.3834C13.6372 27.7798 13.0793 28 12.5 28C11.9207 28 11.3628 27.7798 10.9375 27.3834C10.5122 26.987 9.95426 26.7668 9.375 26.7668C8.79574 26.7668 8.23779 26.987 7.8125 27.3834C7.38721 27.7798 6.82926 28 6.25 28C5.67074 28 5.11279 27.7798 4.6875 27.3834L4.01667 26.7646C3.77391 26.5385 3.45552 26.4129 3.125 26.4129C2.79447 26.4129 2.47609 26.5385 2.23333 26.7646C1.36806 27.5626 0 26.9242 0 25.723V6.11787C0 4.4477 -2.06961e-08 3.61192 0.219444 2.93994C0.636111 1.66176 1.60139 0.659386 2.83194 0.228195C3.48194 1.46028e-07 4.28611 0 5.89583 0ZM16.7486 9.0998C16.9309 8.89196 17.0242 8.61985 17.0081 8.34291C16.992 8.06597 16.8678 7.80672 16.6626 7.62177C16.4575 7.43682 16.1881 7.34122 15.9133 7.35585C15.6384 7.37047 15.3805 7.49414 15.1958 7.69983L11.0125 12.4233L9.80417 11.0598C9.6195 10.8541 9.36157 10.7304 9.08674 10.7158C8.8119 10.7011 8.54249 10.7967 8.33736 10.9817C8.13222 11.1666 8.00804 11.4259 7.99193 11.7028C7.97582 11.9798 8.0691 12.2519 8.25139 12.4597L10.2347 14.6997C10.3324 14.81 10.4522 14.8983 10.5861 14.9587C10.72 15.0192 10.8651 15.0504 11.0118 15.0504C11.1585 15.0504 11.3036 15.0192 11.4375 14.9587C11.5714 14.8983 11.6912 14.81 11.7889 14.6997L16.75 9.0998H16.7486ZM6.25 17.8496C5.97373 17.8496 5.70878 17.9602 5.51343 18.1571C5.31808 18.3541 5.20833 18.6211 5.20833 18.8996C5.20833 19.1781 5.31808 19.4451 5.51343 19.642C5.70878 19.8389 5.97373 19.9496 6.25 19.9496H18.75C19.0263 19.9496 19.2912 19.8389 19.4866 19.642C19.6819 19.4451 19.7917 19.1781 19.7917 18.8996C19.7917 18.6211 19.6819 18.3541 19.4866 18.1571C19.2912 17.9602 19.0263 17.8496 18.75 17.8496H6.25Z" fill="#151515"/>
</svg>
