<svg width="19" height="20" viewBox="0 0 19 20" fill="none" xmlns="http://www.w3.org/2000/svg">
<path d="M16.256 1.93143H14.4267V0.965714C14.4267 0.709591 14.3303 0.463958 14.1588 0.282851C13.9872 0.101745 13.7546 0 13.512 0C13.2694 0 13.0368 0.101745 12.8652 0.282851C12.6937 0.463958 12.5973 0.709591 12.5973 0.965714V1.93143H7.10933V0.965714C7.10933 0.709591 7.01297 0.463958 6.84143 0.282851C6.6699 0.101745 6.43725 0 6.19466 0C5.95208 0 5.71943 0.101745 5.5479 0.282851C5.37636 0.463958 5.28 0.709591 5.28 0.965714V1.93143H3.45066C2.72291 1.93143 2.02496 2.23666 1.51036 2.77998C0.995764 3.3233 0.706665 4.0602 0.706665 4.82857V16.4171C0.706665 17.1855 0.995764 17.9224 1.51036 18.4657C2.02496 19.0091 2.72291 19.3143 3.45066 19.3143H16.256C16.9838 19.3143 17.6817 19.0091 18.1963 18.4657C18.7109 17.9224 19 17.1855 19 16.4171V4.82857C19 4.0602 18.7109 3.3233 18.1963 2.77998C17.6817 2.23666 16.9838 1.93143 16.256 1.93143ZM17.1707 16.4171C17.1707 16.6733 17.0743 16.9189 16.9028 17.1C16.7312 17.2811 16.4986 17.3829 16.256 17.3829H3.45066C3.20808 17.3829 2.97543 17.2811 2.8039 17.1C2.63236 16.9189 2.536 16.6733 2.536 16.4171V9.65714H17.1707V16.4171ZM17.1707 7.72571H2.536V4.82857C2.536 4.57245 2.63236 4.32682 2.8039 4.14571C2.97543 3.9646 3.20808 3.86286 3.45066 3.86286H5.28V4.82857C5.28 5.08469 5.37636 5.33033 5.5479 5.51143C5.71943 5.69254 5.95208 5.79429 6.19466 5.79429C6.43725 5.79429 6.6699 5.69254 6.84143 5.51143C7.01297 5.33033 7.10933 5.08469 7.10933 4.82857V3.86286H12.5973V4.82857C12.5973 5.08469 12.6937 5.33033 12.8652 5.51143C13.0368 5.69254 13.2694 5.79429 13.512 5.79429C13.7546 5.79429 13.9872 5.69254 14.1588 5.51143C14.3303 5.33033 14.4267 5.08469 14.4267 4.82857V3.86286H16.256C16.4986 3.86286 16.7312 3.9646 16.9028 4.14571C17.0743 4.32682 17.1707 4.57245 17.1707 4.82857V7.72571Z" fill="#F7931A"/>
</svg>
