<svg width="46" height="46" viewBox="0 0 46 46" fill="none" xmlns="http://www.w3.org/2000/svg">
<path fill-rule="evenodd" clip-rule="evenodd" d="M15.3938 15.3938C14.8687 15.9189 14.8687 16.7703 15.3938 17.2954L21.0985 23L15.3938 28.7046C14.8687 29.2297 14.8687 30.0811 15.3938 30.6062C15.9189 31.1313 16.7703 31.1313 17.2954 30.6062L23 24.9015L28.7046 30.6061C29.2297 31.1312 30.0811 31.1312 30.6062 30.6061C31.1313 30.081 31.1313 29.2297 30.6062 28.7046L24.9016 23L30.6062 17.2954C31.1313 16.7703 31.1313 15.919 30.6062 15.3939C30.0811 14.8688 29.2297 14.8688 28.7046 15.3939L23 21.0985L17.2954 15.3938C16.7703 14.8687 15.9189 14.8687 15.3938 15.3938Z" fill="#151515"/>
<rect x="0.5" y="0.5" width="45" height="45" rx="22.5" stroke="#D3D3D3"/>
</svg>
