<svg width="24" height="20" viewBox="0 0 24 20" fill="none" xmlns="http://www.w3.org/2000/svg">
<path d="M2.75046 -0.00170898C2.02099 -0.00170898 1.3214 0.28807 0.805591 0.803881C0.28978 1.31969 0 2.01928 0 2.74875V17.2512C0 17.9806 0.28978 18.6802 0.805591 19.196C1.3214 19.7118 2.02099 20.0016 2.75046 20.0016H21.2495C21.979 20.0016 22.6786 19.7118 23.1944 19.196C23.7102 18.6802 24 17.9806 24 17.2512V2.74875C24 2.01928 23.7102 1.31969 23.1944 0.803881C22.6786 0.28807 21.979 -0.00170898 21.2495 -0.00170898H2.75046ZM12.9982 7.74958C12.9982 7.55064 13.0772 7.35984 13.2179 7.21916C13.3585 7.07849 13.5493 6.99946 13.7483 6.99946H19.2492C19.4482 6.99946 19.639 7.07849 19.7796 7.21916C19.9203 7.35984 19.9993 7.55064 19.9993 7.74958C19.9993 7.94853 19.9203 8.13932 19.7796 8.28C19.639 8.42068 19.4482 8.49971 19.2492 8.49971H13.7483C13.5493 8.49971 13.3585 8.42068 13.2179 8.28C13.0772 8.13932 12.9982 7.94853 12.9982 7.74958ZM13.7483 11.0001H19.2492C19.4482 11.0001 19.639 11.0792 19.7796 11.2198C19.9203 11.3605 19.9993 11.5513 19.9993 11.7502C19.9993 11.9492 19.9203 12.14 19.7796 12.2807C19.639 12.4213 19.4482 12.5004 19.2492 12.5004H13.7483C13.5493 12.5004 13.3585 12.4213 13.2179 12.2807C13.0772 12.14 12.9982 11.9492 12.9982 11.7502C12.9982 11.5513 13.0772 11.3605 13.2179 11.2198C13.3585 11.0792 13.5493 11.0001 13.7483 11.0001ZM9.24754 7.74958C9.24754 8.21379 9.06314 8.65898 8.73489 8.98723C8.40665 9.31547 7.96146 9.49987 7.49725 9.49987C7.03304 9.49987 6.58785 9.31547 6.25961 8.98723C5.93136 8.65898 5.74696 8.21379 5.74696 7.74958C5.74696 7.28538 5.93136 6.84018 6.25961 6.51194C6.58785 6.1837 7.03304 5.99929 7.49725 5.99929C7.96146 5.99929 8.40665 6.1837 8.73489 6.51194C9.06314 6.84018 9.24754 7.28538 9.24754 7.74958ZM4.99683 10.5H9.99767C10.2629 10.5 10.5173 10.6054 10.7049 10.793C10.8925 10.9806 10.9978 11.2349 10.9978 11.5002V12.0003C10.9978 12.0003 10.4977 14.5007 7.49725 14.5007C4.49675 14.5007 3.99667 12.0003 3.99667 12.0003V11.5002C3.99667 11.2349 4.10204 10.9806 4.28961 10.793C4.47718 10.6054 4.73157 10.5 4.99683 10.5Z" fill="black"/>
</svg>
