<svg width="18" height="18" viewBox="0 0 18 18" fill="none" xmlns="http://www.w3.org/2000/svg">
<path fill-rule="evenodd" clip-rule="evenodd" d="M7 6C6.73478 6 6.48043 6.10536 6.29289 6.29289C6.10536 6.48043 6 6.73478 6 7V15C6 15.2652 6.10536 15.5196 6.29289 15.7071C6.48043 15.8946 6.73478 16 7 16H15C15.2652 16 15.5196 15.8946 15.7071 15.7071C15.8946 15.5196 16 15.2652 16 15V7C16 6.73478 15.8946 6.48043 15.7071 6.29289C15.5196 6.10536 15.2652 6 15 6H7ZM4.87868 4.87868C5.44129 4.31607 6.20435 4 7 4H15C15.7957 4 16.5587 4.31607 17.1213 4.87868C17.6839 5.44129 18 6.20435 18 7V15C18 15.7957 17.6839 16.5587 17.1213 17.1213C16.5587 17.6839 15.7957 18 15 18H7C6.20435 18 5.44129 17.6839 4.87868 17.1213C4.31607 16.5587 4 15.7957 4 15V7C4 6.20435 4.31607 5.44129 4.87868 4.87868Z" fill="black"/>
<path fill-rule="evenodd" clip-rule="evenodd" d="M0.87868 0.87868C1.44129 0.31607 2.20435 0 3 0H11C11.7956 0 12.5587 0.31607 13.1213 0.87868C13.6839 1.44129 14 2.20435 14 3V5C14 5.55228 13.5523 6 13 6C12.4477 6 12 5.55228 12 5V3C12 2.73478 11.8946 2.48043 11.7071 2.29289C11.5196 2.10536 11.2652 2 11 2H3C2.73478 2 2.48043 2.10536 2.29289 2.29289C2.10536 2.48043 2 2.73478 2 3V11C2 11.2652 2.10536 11.5196 2.29289 11.7071C2.48043 11.8946 2.73478 12 3 12H5C5.55228 12 6 12.4477 6 13C6 13.5523 5.55228 14 5 14H3C2.20435 14 1.44129 13.6839 0.87868 13.1213C0.31607 12.5587 0 11.7956 0 11V3C0 2.20435 0.31607 1.44129 0.87868 0.87868Z" fill="black"/>
</svg>
