<svg width="32" height="32" viewBox="0 0 32 32" fill="none" xmlns="http://www.w3.org/2000/svg">
<rect width="32" height="32" rx="4" fill="#E3E3E3"/>
<path d="M7.9 10.7503C7.9 10.3363 8.2105 9.9997 8.5939 9.9997H10.9924C11.4685 9.9862 11.8888 9.6595 12.0508 9.1753L12.0778 9.0898L12.1813 8.755C12.2443 8.5498 12.2992 8.3707 12.3766 8.2105C12.6808 7.5787 13.2442 7.1404 13.8949 7.0279C14.0605 7 14.2342 7 14.4349 7H17.5651C17.7658 7 17.9404 7 18.1051 7.0279C18.7558 7.1404 19.3201 7.5787 19.6234 8.2105C19.7008 8.3707 19.7557 8.5498 19.8187 8.755L19.9222 9.0898L19.9492 9.1753C20.1112 9.6595 20.6152 9.9871 21.0922 9.9997H23.4052C23.7895 9.9997 24.1 10.3354 24.1 10.7503C24.1 11.1643 23.7895 11.5 23.4061 11.5H8.593C8.2096 11.5 7.9 11.1643 7.9 10.7503ZM15.8713 25H16.5796C19.0159 25 20.2336 25 21.0265 24.2233C21.8185 23.4457 21.8995 22.1713 22.0615 19.6234L22.2955 15.9505C22.3837 14.5672 22.4278 13.876 22.03 13.4377C21.6322 12.9994 20.9617 12.9994 19.6189 12.9994H12.832C11.4901 12.9994 10.8187 12.9994 10.4209 13.4377C10.024 13.876 10.0681 14.5672 10.1554 15.9505L10.3894 19.6225C10.5514 22.1722 10.6324 23.4457 11.4244 24.2233C12.2155 25 13.435 25 15.8713 25Z" fill="#E34242"/>
</svg>
