<svg width="20" height="18" viewBox="0 0 20 18" fill="none" xmlns="http://www.w3.org/2000/svg">
<path d="M20 0.72C20 0.529044 19.9247 0.345909 19.7908 0.210883C19.6568 0.0758569 19.4751 0 19.2857 0C15.3499 0 11.3113 4.4739 9.06841 7.4367C8.26738 7.18942 7.41997 7.13495 6.59426 7.27765C5.76855 7.42035 4.98755 7.75626 4.314 8.25839C3.64044 8.76051 3.0931 9.41486 2.71593 10.1689C2.33877 10.9229 2.1423 11.7556 2.1423 12.6C2.1423 15.3792 0.397606 16.6257 0.314568 16.6833C0.187858 16.7695 0.0919443 16.8945 0.0409316 17.0398C-0.010081 17.1851 -0.0135009 17.343 0.0311748 17.4904C0.0758505 17.6378 0.166264 17.7668 0.289121 17.8586C0.411978 17.9503 0.560794 17.9999 0.713688 18H7.49961C8.33737 18 9.16346 17.802 9.91151 17.4218C10.6596 17.0416 11.3087 16.4899 11.8069 15.811C12.3051 15.1321 12.6383 14.3449 12.7799 13.5126C12.9215 12.6803 12.8674 11.8261 12.6221 11.0187C15.5624 8.7579 20 4.6872 20 0.72ZM7.49961 16.56H2.37713C2.97983 15.6969 3.57092 14.3928 3.57092 12.6C3.57092 11.8168 3.80133 11.0512 4.23302 10.3999C4.66471 9.74872 5.27829 9.24116 5.99617 8.94144C6.71404 8.64172 7.50397 8.56329 8.26606 8.71609C9.02815 8.86889 9.72818 9.24604 10.2776 9.79986C10.8271 10.3537 11.2012 11.0593 11.3528 11.8274C11.5044 12.5956 11.4266 13.3918 11.1293 14.1154C10.8319 14.839 10.3283 15.4575 9.68228 15.8926C9.03621 16.3277 8.27663 16.56 7.49961 16.56ZM10.3943 8.0595C10.7003 7.6599 11.0006 7.2834 11.2953 6.93C12.0165 7.42114 12.6375 8.04715 13.1248 8.7741C12.7736 9.0705 12.4001 9.3732 12.0042 9.6822C11.588 9.03223 11.0392 8.47907 10.3943 8.0595ZM14.207 7.8183C13.6677 7.05132 13.0035 6.38187 12.2426 5.8383C15.0802 2.7306 17.2204 1.7883 18.4839 1.5264C18.2294 2.8008 17.2901 4.9581 14.207 7.8183Z" fill="#F7931A"/>
</svg>
