<svg width="17" height="17" viewBox="0 0 17 17" fill="none" xmlns="http://www.w3.org/2000/svg">
<path d="M10 1.87503C10 1.0466 9.32843 0.375031 8.5 0.375031C7.67157 0.375031 7 1.0466 7 1.87503L7 9.07477L4.682 6.75677C4.09621 6.17098 3.14646 6.17098 2.56068 6.75677C1.97489 7.34255 1.97489 8.2923 2.56068 8.87809L7 13.3174V13.625H2C1.17157 13.625 0.5 14.2966 0.5 15.125C0.5 15.9535 1.17157 16.625 2 16.625H15C15.8284 16.625 16.5 15.9535 16.5 15.125C16.5 14.2966 15.8284 13.625 15 13.625H10V13.4387L14.6317 8.80702C15.2175 8.22123 15.2175 7.27148 14.6317 6.6857C14.0459 6.09991 13.0962 6.09991 12.5104 6.6857L10 9.19611L10 1.87503Z" fill="white"/>
</svg>
