<svg width="32" height="32" viewBox="0 0 32 32" fill="none" xmlns="http://www.w3.org/2000/svg">
<rect width="32" height="32" rx="4" fill="#E3E3E3"/>
<path d="M16.8402 12.6482L22.0404 7.59471C22.2263 7.40836 22.4485 7.25981 22.6941 7.15772C22.9397 7.05563 23.2037 7.00204 23.4708 7.00006C23.7379 6.99808 24.0027 7.04775 24.2499 7.14618C24.497 7.24462 24.7215 7.38985 24.9104 7.57342C25.0992 7.75699 25.2486 7.97523 25.3498 8.21544C25.451 8.45565 25.5021 8.71302 25.4999 8.97258C25.4978 9.23214 25.4426 9.48869 25.3375 9.72731C25.2323 9.96593 25.0794 10.1818 24.8876 10.3625L19.6883 15.4151C19.385 15.7101 19.005 15.9193 18.5888 16.0204L16.9767 16.4116C16.8162 16.4508 16.6481 16.4488 16.4887 16.406C16.3292 16.3632 16.1839 16.2809 16.0669 16.1673C15.9499 16.0537 15.8651 15.9125 15.8209 15.7576C15.7767 15.6027 15.7746 15.4393 15.8147 15.2833L16.2182 13.7167C16.3222 13.3117 16.5371 12.9427 16.8402 12.6482ZM16.2173 12.043L20.1781 8.19397C19.8548 7.9872 19.4762 7.87735 19.0892 7.87807H12.4821C11.9564 7.87807 11.4523 8.08101 11.0806 8.44225C10.7088 8.80349 10.5 9.29343 10.5 9.80429V23.0738C10.5 23.5846 10.7088 24.0746 11.0806 24.4358C11.4523 24.7971 11.9564 25 12.4821 25H19.0892C19.6149 25 20.1191 24.7971 20.4908 24.4358C20.8625 24.0746 21.0713 23.5846 21.0713 23.0738V15.2816L20.3111 16.0204C19.8951 16.4249 19.3738 16.712 18.8029 16.8508L17.1908 17.2421C15.8429 17.5699 14.6237 16.3842 14.9602 15.0761L15.3637 13.5086C15.5064 12.9539 15.8006 12.4471 16.2173 12.043ZM16.8868 21.5756C17.0621 21.5756 17.2301 21.6433 17.354 21.7637C17.4779 21.8841 17.5476 22.0474 17.5476 22.2177C17.5476 22.388 17.4779 22.5513 17.354 22.6717C17.2301 22.7921 17.0621 22.8598 16.8868 22.8598H14.6845C14.5093 22.8598 14.3412 22.7921 14.2173 22.6717C14.0934 22.5513 14.0238 22.388 14.0238 22.2177C14.0238 22.0474 14.0934 21.8841 14.2173 21.7637C14.3412 21.6433 14.5093 21.5756 14.6845 21.5756H16.8868Z" fill="#151515"/>
</svg>
