<svg width="24" height="24" viewBox="0 0 24 24" fill="none" xmlns="http://www.w3.org/2000/svg">
<path d="M21.6884 2.12277C21.9339 2.30134 22.0343 2.53943 21.9897 2.83705L19.1326 19.9799C19.0954 20.1957 18.9764 20.3631 18.7755 20.4821C18.6713 20.5417 18.556 20.5714 18.4295 20.5714C18.3477 20.5714 18.2584 20.5528 18.1616 20.5156L13.1059 18.4509L10.4051 21.7433C10.2712 21.9144 10.0889 22 9.85823 22C9.76151 22 9.67966 21.9851 9.6127 21.9554C9.47134 21.9033 9.35787 21.8158 9.27231 21.6931C9.18674 21.5703 9.14396 21.4345 9.14396 21.2857V17.3906L18.7866 5.57143L6.85606 15.8951L2.44766 14.0871C2.17237 13.9829 2.02356 13.7783 2.00124 13.4732C1.98636 13.1756 2.1054 12.9561 2.35838 12.8147L20.9294 2.10045C21.0411 2.03348 21.1601 2 21.2866 2C21.4354 2 21.5693 2.04092 21.6884 2.12277Z" fill="black"/>
</svg>
