<svg width="16" height="18" viewBox="0 0 16 18" fill="none" xmlns="http://www.w3.org/2000/svg">
<path fill-rule="evenodd" clip-rule="evenodd" d="M0.659546 1.42277C0.659546 1.03044 0.977588 0.712402 1.36991 0.712402H10.8415C11.2338 0.712402 11.5518 1.03044 11.5518 1.42277C11.5518 1.81509 11.2338 2.13314 10.8415 2.13314H2.08028V14.6829C2.08028 14.9969 2.20502 15.2981 2.42705 15.5201C2.64908 15.7422 2.95022 15.8669 3.26422 15.8669H10.8415C11.2338 15.8669 11.5518 16.1849 11.5518 16.5773C11.5518 16.9696 11.2338 17.2876 10.8415 17.2876H3.26422C2.57342 17.2876 1.91091 17.0132 1.42244 16.5247C0.933966 16.0363 0.659546 15.3737 0.659546 14.6829V1.42277ZM11.2863 5.65624C11.5637 5.37883 12.0135 5.37883 12.2909 5.65624L15.1324 8.49771C15.2656 8.63093 15.3405 8.81161 15.3405 9.00001C15.3405 9.18841 15.2656 9.3691 15.1324 9.50232L12.2909 12.3438C12.0135 12.6212 11.5637 12.6212 11.2863 12.3438C11.0089 12.0664 11.0089 11.6166 11.2863 11.3392L12.9151 9.71038H5.15853C4.76621 9.71038 4.44817 9.39234 4.44817 9.00001C4.44817 8.60769 4.76621 8.28964 5.15853 8.28964H12.9151L11.2863 6.66085C11.0089 6.38344 11.0089 5.93366 11.2863 5.65624Z" fill="#F7931A"/>
</svg>
