<svg width="14" height="11" viewBox="0 0 14 11" fill="none" xmlns="http://www.w3.org/2000/svg">
<path d="M0 0.771429C0 0.34538 0.34538 0 0.771429 0H0.791071C1.21712 0 1.5625 0.34538 1.5625 0.771429V0.771429C1.5625 1.19748 1.21712 1.54286 0.791071 1.54286H0.771429C0.345381 1.54286 0 1.19748 0 0.771429V0.771429ZM0 5.5C0 5.07395 0.345381 4.72857 0.771429 4.72857H0.791071C1.21712 4.72857 1.5625 5.07395 1.5625 5.5V5.5C1.5625 5.92605 1.21712 6.27143 0.791071 6.27143H0.771429C0.345381 6.27143 0 5.92605 0 5.5V5.5ZM0 10.2286C0 9.80252 0.34538 9.45714 0.771429 9.45714H0.791071C1.21712 9.45714 1.5625 9.80252 1.5625 10.2286V10.2286C1.5625 10.6546 1.21712 11 0.791071 11H0.771429C0.345381 11 0 10.6546 0 10.2286V10.2286ZM2.5 0.771429C2.5 0.34538 2.84538 0 3.27143 0H13.2286C13.6546 0 14 0.34538 14 0.771429V0.771429C14 1.19748 13.6546 1.54286 13.2286 1.54286H3.27143C2.84538 1.54286 2.5 1.19748 2.5 0.771429V0.771429ZM2.5 5.5C2.5 5.07395 2.84538 4.72857 3.27143 4.72857H13.2286C13.6546 4.72857 14 5.07395 14 5.5V5.5C14 5.92605 13.6546 6.27143 13.2286 6.27143H3.27143C2.84538 6.27143 2.5 5.92605 2.5 5.5V5.5ZM2.5 10.2286C2.5 9.80252 2.84538 9.45714 3.27143 9.45714H13.2286C13.6546 9.45714 14 9.80252 14 10.2286V10.2286C14 10.6546 13.6546 11 13.2286 11H3.27143C2.84538 11 2.5 10.6546 2.5 10.2286V10.2286Z" fill="black"/>
</svg>
