<svg width="20" height="20" viewBox="0 0 20 20" fill="none" xmlns="http://www.w3.org/2000/svg">
<path d="M1.75577 4.05495C1.91903 3.62801 2.39747 3.41426 2.8244 3.57752L4.36121 4.16518C4.78814 4.32844 5.0019 4.80688 4.83864 5.23381L3.24791 9.39375C3.08465 9.82068 2.60621 10.0344 2.17928 9.87118L0.642471 9.28351C0.215539 9.12026 0.00178741 8.64182 0.165043 8.21488L1.75577 4.05495Z" fill="#151515"/>
<path d="M3.74081 9.06138L5.05189 5.63277C5.14984 5.37661 5.43741 5.25266 5.70759 5.29971C7.29337 5.5759 9.09032 4.47109 10.8711 4.98027C12.8336 5.54139 15.4684 7.38981 16.6803 8.26454C15.4132 7.96426 14.2628 8.49171 13.846 8.79297L9.30455 8.53699C9.94649 8.65085 11.442 8.91016 12.2887 9.03649C13.347 9.19441 16.2311 9.31018 16.0491 10.4745C15.8671 11.6387 14.7793 11.6011 11.9834 11.4697C9.18752 11.3384 8.88607 12.3418 7.33215 12.0602C5.77824 11.7785 4.69463 10.5251 4.46331 10.1406C4.37871 9.9999 4.22653 9.8843 4.06418 9.79494C3.80156 9.65041 3.63375 9.34137 3.74081 9.06138Z" fill="#151515"/>
<path d="M9.58415 13.0414C9.2684 13.0167 8.96246 12.5866 8.84896 12.3746C9.21944 12.2507 9.78637 12.0764 10.2985 11.9909C10.7083 11.9224 11.39 11.9531 11.6796 11.977C11.6571 12.2359 11.6449 12.9018 11.7769 13.4942C11.0187 13.4711 10.6583 12.858 10.5729 12.5544C10.3749 12.727 9.8999 13.0661 9.58415 13.0414Z" fill="#151515"/>
<path fill-rule="evenodd" clip-rule="evenodd" d="M18.5383 15.5019C16.895 16.9373 14.3995 16.7689 12.964 15.1258C12.1784 14.2266 11.8732 13.072 12.0272 11.9757C12.993 11.9928 13.9691 12.0053 14.7323 11.8785C14.9182 11.8477 15.1041 11.8068 15.2826 11.7508C15.3489 12.0678 15.5117 12.386 15.658 12.6716C15.9898 13.3062 16.1109 13.6374 15.8487 13.8664C15.5915 14.0912 15.0869 13.9563 14.7476 13.5678C14.4082 13.1793 14.3423 12.6613 14.5996 12.4365L14.1833 11.9598C13.7566 12.3324 13.7004 12.9993 14.0015 13.5893L13.4821 14.0431L14.1067 14.758L14.6261 14.3042C15.1703 14.6817 15.8385 14.7157 16.2653 14.3431C16.9277 13.7642 16.5353 12.9976 16.2204 12.382C16.0033 11.967 15.8764 11.6817 15.8879 11.47C15.8967 11.4641 15.9055 11.458 15.9143 11.452C16.0629 11.3483 16.1915 11.2244 16.294 11.0808C16.5557 11.0576 16.8862 11.2059 17.1307 11.4858C17.4702 11.8743 17.536 12.3923 17.2787 12.6171L17.695 13.0939C18.1218 12.7212 18.1779 12.0543 17.8768 11.4644L18.3962 11.0106L17.7717 10.2956L17.2522 10.7494C17.0288 10.5943 16.7843 10.4971 16.5443 10.4625C16.5506 10.4221 16.5555 10.3809 16.5589 10.3387C16.5974 9.86082 16.3652 9.49948 16.0364 9.26625C15.7427 9.05789 15.3592 8.93785 14.9851 8.85448C14.8811 8.83115 14.7712 8.80968 14.6563 8.78933C16.1294 8.28422 17.8264 8.68264 18.9143 9.92781C20.3498 11.5709 20.1814 14.0665 18.5383 15.5019Z" fill="#151515"/>
</svg>
