<svg width="16" height="16" viewBox="0 0 16 16" fill="none" xmlns="http://www.w3.org/2000/svg">
<path id="Vector" d="M15.4207 3.80599C15.3984 3.67705 15.3509 3.55456 15.2813 3.44646C15.2118 3.33835 15.1216 3.24706 15.0168 3.1785L12.7091 5.63924C12.6014 5.75831 12.4724 5.85303 12.3296 5.91772C12.1869 5.98242 12.0334 6.01576 11.8783 6.01576C11.7232 6.01576 11.5697 5.98242 11.4269 5.91772C11.2842 5.85303 11.1551 5.75831 11.0475 5.63924L10.1705 4.80259C9.95911 4.5726 9.84069 4.26338 9.84069 3.94133C9.84069 3.61928 9.95911 3.31007 10.1705 3.08007L12.4783 0.619341C12.428 0.493274 12.3523 0.38054 12.2566 0.289117C12.1608 0.197694 12.0475 0.129815 11.9244 0.0902835C11.1192 -0.0809347 10.2851 -0.00764402 9.51705 0.301811C8.74899 0.611267 8.07784 1.14445 7.58003 1.84067C7.08221 2.53688 6.77772 3.36815 6.70123 4.23983C6.62474 5.1115 6.77932 5.98857 7.14736 6.77117L0.847175 13.4275C0.737272 13.542 0.649948 13.6789 0.590329 13.83C0.530711 13.981 0.5 14.1433 0.5 14.3072C0.5 14.4711 0.530711 14.6333 0.590329 14.7844C0.649948 14.9355 0.737272 15.0723 0.847175 15.1869L1.26257 15.6298C1.37003 15.747 1.49837 15.8401 1.64005 15.9037C1.78173 15.9673 1.93389 16 2.0876 16C2.24131 16 2.39347 15.9673 2.53514 15.9037C2.67682 15.8401 2.80516 15.747 2.91262 15.6298L9.21281 8.92431C9.94696 9.29727 10.7637 9.4458 11.5723 9.35337C12.3809 9.26094 13.1496 8.93119 13.7929 8.40077C14.4362 7.87036 14.929 7.16008 15.2164 6.3489C15.5037 5.53773 15.5745 4.65746 15.4207 3.80599Z" fill="#151515"/>
</svg>
