<svg width="22" height="22" viewBox="0 0 22 22" fill="none" xmlns="http://www.w3.org/2000/svg">
<path fill-rule="evenodd" clip-rule="evenodd" d="M11.8108 1.75C10.1353 1.75 8.77704 3.10827 8.77704 4.78378C8.77704 6.4593 10.1353 7.81757 11.8108 7.81757C13.4863 7.81757 14.8446 6.4593 14.8446 4.78378C14.8446 3.10827 13.4863 1.75 11.8108 1.75ZM7.27704 4.78378C7.27704 2.27984 9.30688 0.25 11.8108 0.25C14.3148 0.25 16.3446 2.27984 16.3446 4.78378C16.3446 7.28772 14.3148 9.31757 11.8108 9.31757C9.30688 9.31757 7.27704 7.28772 7.27704 4.78378Z" fill="#F7931A"/>
<path fill-rule="evenodd" clip-rule="evenodd" d="M10.7297 13.1014C5.68493 13.1014 1.75 16.7181 1.75 21C1.75 21.4142 1.41421 21.75 1 21.75C0.585786 21.75 0.25 21.4142 0.25 21C0.25 15.7284 5.02751 11.6014 10.7297 11.6014C11.1439 11.6014 11.4797 11.9372 11.4797 12.3514C11.4797 12.7656 11.1439 13.1014 10.7297 13.1014ZM15.5392 12.296C15.984 11.8512 16.5872 11.6014 17.2162 11.6014C17.8452 11.6014 18.4484 11.8512 18.8932 12.296C19.338 12.7408 19.5878 13.344 19.5878 13.973V14.8446H21C21.4142 14.8446 21.75 15.1804 21.75 15.5946V21C21.75 21.4142 21.4142 21.75 21 21.75H13.4324C13.0182 21.75 12.6824 21.4142 12.6824 21V15.5946C12.6824 15.1804 13.0182 14.8446 13.4324 14.8446H14.8446V13.973C14.8446 13.344 15.0945 12.7408 15.5392 12.296ZM14.1824 16.3446V20.25H20.25V16.3446H14.1824ZM18.0878 14.8446H16.3446V13.973C16.3446 13.7418 16.4364 13.5201 16.5999 13.3567C16.7633 13.1932 16.985 13.1014 17.2162 13.1014C17.4474 13.1014 17.6691 13.1932 17.8325 13.3567C17.996 13.5201 18.0878 13.7418 18.0878 13.973V14.8446Z" fill="#F7931A"/>
</svg>
