<svg width="18" height="18" viewBox="0 0 18 18" fill="none" xmlns="http://www.w3.org/2000/svg">
<path d="M9 9C7.7625 9 6.70313 8.55937 5.82188 7.67812C4.94063 6.79687 4.5 5.7375 4.5 4.5C4.5 3.2625 4.94063 2.20313 5.82188 1.32188C6.70313 0.440625 7.7625 0 9 0C10.2375 0 11.2969 0.440625 12.1781 1.32188C13.0594 2.20313 13.5 3.2625 13.5 4.5C13.5 5.7375 13.0594 6.79687 12.1781 7.67812C11.2969 8.55937 10.2375 9 9 9ZM2.25 18C1.63125 18 1.10175 17.7799 0.6615 17.3396C0.2205 16.8986 0 16.3688 0 15.75V14.85C0 14.2125 0.16425 13.6264 0.49275 13.0916C0.8205 12.5576 1.25625 12.15 1.8 11.8688C2.9625 11.2875 4.14375 10.8514 5.34375 10.5604C6.54375 10.2701 7.7625 10.125 9 10.125C10.2375 10.125 11.4563 10.2701 12.6563 10.5604C13.8563 10.8514 15.0375 11.2875 16.2 11.8688C16.7438 12.15 17.1795 12.5576 17.5073 13.0916C17.8358 13.6264 18 14.2125 18 14.85V15.75C18 16.3688 17.7799 16.8986 17.3396 17.3396C16.8986 17.7799 16.3688 18 15.75 18H2.25Z" fill="#151515"/>
</svg>
