<svg width="22" height="22" viewBox="0 0 22 22" fill="none" xmlns="http://www.w3.org/2000/svg">
<path d="M10.4149 18.2499H7.68487C4.99487 18.2499 3.74487 16.9999 3.74487 14.3099V11.5799C3.74487 8.8999 4.99487 7.6499 7.68487 7.6499H10.4149C13.0949 7.6499 14.3549 8.8999 14.3549 11.5899V14.3199C14.3449 16.9999 13.0949 18.2499 10.4149 18.2499ZM7.68487 9.1499C5.81487 9.1499 5.24487 9.7199 5.24487 11.5899V14.3199C5.24487 16.1899 5.81487 16.7599 7.68487 16.7599H10.4149C12.2849 16.7599 12.8549 16.1899 12.8549 14.3199V11.5899C12.8549 9.7199 12.2849 9.1499 10.4149 9.1499H7.68487Z" fill="#F7931A"/>
<path d="M14.3053 14.35H13.5953C13.1853 14.35 12.8453 14.01 12.8453 13.6V11.58C12.8453 9.71 12.2753 9.14 10.4053 9.14H8.39526C7.98526 9.14 7.64526 8.8 7.64526 8.39V7.69C7.64526 5.01 8.89526 3.75 11.5853 3.75H14.3153C16.9953 3.75 18.2553 5 18.2553 7.69V10.42C18.2453 13.1 16.9953 14.35 14.3053 14.35ZM9.14527 7.65L10.4149 7.6499C13.0949 7.6499 14.3549 8.8999 14.3549 11.5899L14.3553 12.86C16.1953 12.85 16.7553 12.28 16.7553 10.42V7.69C16.7553 5.82 16.1853 5.25 14.3153 5.25H11.5853C9.72527 5.25 9.15527 5.81 9.14527 7.65Z" fill="#F7931A"/>
<path d="M13.9951 21.7502C13.7251 21.7502 13.4751 21.6002 13.3451 21.3702C13.2151 21.1302 13.2151 20.8502 13.3551 20.6102L14.4051 18.8602C14.6151 18.5002 15.0751 18.3902 15.4351 18.6002C15.7951 18.8102 15.9051 19.2702 15.6951 19.6302L15.4251 20.0802C18.1851 19.4302 20.2551 16.9502 20.2551 13.9902C20.2551 13.5802 20.5951 13.2402 21.0051 13.2402C21.4151 13.2402 21.7551 13.5802 21.7551 13.9902C21.7451 18.2702 18.2651 21.7502 13.9951 21.7502Z" fill="#F7931A"/>
<path d="M0.994873 8.75C0.584873 8.75 0.244873 8.41 0.244873 8C0.244873 3.73 3.72487 0.25 7.99487 0.25C8.26487 0.25 8.51487 0.4 8.64487 0.63C8.77487 0.87 8.77487 1.15 8.63487 1.39L7.58487 3.14C7.37487 3.49 6.91487 3.61 6.55487 3.39C6.20487 3.18 6.08487 2.72 6.30487 2.36L6.57487 1.91C3.80487 2.56 1.74487 5.04 1.74487 8C1.74487 8.41 1.40487 8.75 0.994873 8.75Z" fill="#F7931A"/>
</svg>
