<svg width="20" height="20" viewBox="0 0 20 20" fill="none" xmlns="http://www.w3.org/2000/svg">
<path d="M1.78094 10.5795C1.00434 10.6932 0.624794 10.7058 0.0407715 10.7215V14.5335C0.522201 14.4546 0.947528 14.4956 2.72801 15.1017C4.95361 15.8594 6.682 17.28 7.91318 17.28C9.14437 17.28 11.9382 16.1909 13.714 15.3622C11.2042 15.3385 9.49952 15.2201 9.80731 14.9834C10.1151 14.7466 11.9382 14.865 14.1638 14.9834C16.3894 15.1017 17.1707 14.865 17.1471 14.202C17.1234 13.5391 15.7501 12.9945 14.7794 12.9945C13.8087 12.9945 10.2808 12.8288 9.16804 12.4263C8.05524 12.0238 7.7948 11.2424 6.11376 10.7215C4.43272 10.2007 2.75168 10.4374 1.78094 10.5795Z" fill="#151515"/>
<path d="M13.714 11.1084C12.7502 10.5911 11.3249 12.0507 10.9768 12.4263C11.2236 12.4263 12.2795 12.4478 14.528 12.534C16.2295 12.4581 16.983 12.9202 17.1471 13.1607L19.9592 10.7215C19.6744 9.74465 18.6693 10.1898 17.7578 10.7215C17.4589 9.96428 16.3506 10.4915 15.888 10.8963C15.888 10.3871 14.8128 10.3033 13.714 11.1084Z" fill="#151515"/>
<path fill-rule="evenodd" clip-rule="evenodd" d="M9.50867 9.12707C11.2779 9.12707 12.7122 7.6928 12.7122 5.92352C12.7122 4.15425 11.2779 2.71997 9.50867 2.71997C7.7394 2.71997 6.30512 4.15425 6.30512 5.92352C6.30512 7.6928 7.7394 9.12707 9.50867 9.12707ZM8.73887 6.69339H8.22563C8.22563 7.15273 8.60286 7.54279 9.12379 7.67367V8.23309H9.89365V7.67367C10.4146 7.54279 10.7918 7.15273 10.7918 6.69339C10.7918 5.97999 10.1143 5.81063 9.57031 5.67462C9.00575 5.53861 8.73887 5.43596 8.73887 5.15369C8.73887 4.87654 9.09043 4.64045 9.50872 4.64045C9.92701 4.64045 10.2786 4.87654 10.2786 5.15369H10.7918C10.7918 4.69434 10.4146 4.30428 9.89365 4.17341V3.61398H9.12379V4.17341C8.60286 4.30428 8.22563 4.69434 8.22563 5.15369C8.22563 5.86708 8.9031 6.03645 9.44713 6.17246C10.0117 6.30846 10.2786 6.41111 10.2786 6.69339C10.2786 6.97054 9.92701 7.20662 9.50872 7.20662C9.09043 7.20662 8.73887 6.97054 8.73887 6.69339Z" fill="#151515"/>
</svg>
