<svg width="24" height="24" viewBox="0 0 24 24" fill="none" xmlns="http://www.w3.org/2000/svg">
<path fill-rule="evenodd" clip-rule="evenodd" d="M2 4.5C2 3.11928 3.11928 2 4.5 2H19.5C20.8807 2 22 3.11928 22 4.5V14.4547C21.0165 13.1622 19.4618 12.3278 17.7123 12.3278C14.7384 12.3278 12.3278 14.7384 12.3278 17.7123C12.3278 19.4618 13.1622 21.0165 14.4547 22H4.5C3.11928 22 2 20.8807 2 19.5V4.5ZM10.9429 15.676L16.4202 9.15545C16.5285 9.0227 16.5802 8.85262 16.5641 8.68213C16.548 8.51153 16.4654 8.35416 16.3343 8.244C16.2031 8.13383 16.0338 8.07971 15.8631 8.09324C15.6923 8.10687 15.5337 8.18713 15.4217 8.31673L10.4257 14.2632L8.57989 12.2124C8.52333 12.1465 8.45406 12.0925 8.37634 12.0537C8.29852 12.015 8.21378 11.9921 8.12711 11.9865C8.10158 11.9848 8.07595 11.9847 8.05041 11.9861C8.0201 11.9877 7.98999 11.9915 7.96018 11.9973C7.93007 12.0032 7.90037 12.0111 7.87128 12.0213C7.82916 12.0359 7.78878 12.0547 7.75073 12.0775C7.71452 12.0991 7.68044 12.1242 7.64901 12.1525C7.58441 12.2107 7.53212 12.2811 7.4951 12.3597C7.47699 12.3984 7.46264 12.4386 7.45237 12.4798C7.44179 12.5226 7.43548 12.5663 7.43365 12.6104C7.43009 12.6973 7.44393 12.784 7.47434 12.8654C7.50476 12.9468 7.55115 13.0213 7.61076 13.0845L9.95817 15.6928C10.0193 15.7608 10.0941 15.8151 10.1775 15.8523C10.261 15.8895 10.3513 15.9088 10.4428 15.9088H10.4538C10.5472 15.9073 10.6392 15.8858 10.7237 15.8456C10.7522 15.832 10.7798 15.8163 10.806 15.7988C10.8571 15.7646 10.9032 15.7233 10.9429 15.676Z" fill="black"/>
<path d="M17.7123 13.4246C16.8642 13.4246 16.0353 13.676 15.3301 14.1472C14.625 14.6183 14.0755 15.288 13.7509 16.0714C13.4264 16.8549 13.3415 17.717 13.5069 18.5488C13.6724 19.3805 14.0808 20.1445 14.6804 20.7442C15.2801 21.3438 16.0441 21.7522 16.8758 21.9176C17.7075 22.0831 18.5696 21.9981 19.3531 21.6736C20.1366 21.3491 20.8062 20.7995 21.2774 20.0944C21.7485 19.3893 22 18.5603 22 17.7123C22 17.1492 21.8891 16.5916 21.6736 16.0714C21.4581 15.5512 21.1423 15.0786 20.7442 14.6804C20.346 14.2822 19.8733 13.9664 19.3531 13.7509C18.8329 13.5355 18.2754 13.4246 17.7123 13.4246ZM17.7123 20.2849C17.6275 20.2849 17.5446 20.2598 17.4741 20.2126C17.4036 20.1655 17.3486 20.0986 17.3161 20.0202C17.2837 19.9419 17.2752 19.8557 17.2917 19.7725C17.3083 19.6893 17.3491 19.6129 17.4091 19.5529C17.4691 19.493 17.5455 19.4521 17.6286 19.4356C17.7118 19.4191 17.798 19.4276 17.8764 19.46C17.9547 19.4925 18.0217 19.5474 18.0688 19.6179C18.1159 19.6884 18.1411 19.7713 18.1411 19.8561C18.1411 19.9699 18.0959 20.0789 18.0155 20.1593C17.9351 20.2397 17.826 20.2849 17.7123 20.2849ZM18.1411 18.0724V18.5698C18.1411 18.6835 18.0959 18.7926 18.0155 18.873C17.9351 18.9534 17.826 18.9986 17.7123 18.9986C17.5986 18.9986 17.4895 18.9534 17.4091 18.873C17.3287 18.7926 17.2835 18.6835 17.2835 18.5698V17.7123C17.2835 17.5986 17.3287 17.4895 17.4091 17.4091C17.4895 17.3287 17.5986 17.2835 17.7123 17.2835C17.8395 17.2835 17.9638 17.2458 18.0696 17.1751C18.1754 17.1044 18.2578 17.004 18.3065 16.8865C18.3552 16.769 18.3679 16.6396 18.3431 16.5149C18.3183 16.3901 18.257 16.2755 18.1671 16.1856C18.0771 16.0956 17.9625 16.0344 17.8378 16.0095C17.713 15.9847 17.5837 15.9975 17.4662 16.0461C17.3486 16.0948 17.2482 16.1773 17.1775 16.283C17.1068 16.3888 17.0691 16.5131 17.0691 16.6403C17.0691 16.7541 17.0239 16.8631 16.9435 16.9435C16.8631 17.0239 16.7541 17.0691 16.6403 17.0691C16.5266 17.0691 16.4176 17.0239 16.3372 16.9435C16.2568 16.8631 16.2116 16.7541 16.2116 16.6403C16.2105 16.3618 16.2869 16.0884 16.4323 15.8508C16.5778 15.6132 16.7865 15.4208 17.0351 15.2951C17.2837 15.1694 17.5624 15.1153 17.8399 15.139C18.1175 15.1627 18.383 15.2632 18.6067 15.4293C18.8304 15.5953 19.0034 15.8203 19.1065 16.0791C19.2096 16.3379 19.2385 16.6203 19.1902 16.8947C19.1419 17.169 19.0181 17.4245 18.8328 17.6325C18.6476 17.8405 18.408 17.9929 18.1411 18.0724Z" fill="black"/>
</svg>
