<svg width="20" height="20" viewBox="0 0 20 20" fill="none" xmlns="http://www.w3.org/2000/svg">
<path d="M1.78094 6.86753C1.00434 6.98119 0.624794 6.9938 0.0407715 7.00958V10.8215C0.522201 10.7426 0.947528 10.7836 2.72801 11.3898C4.95361 12.1474 6.682 13.568 7.91318 13.568C9.14437 13.568 11.9382 12.4789 13.714 11.6502C11.2042 11.6265 9.49952 11.5082 9.80731 11.2714C10.1151 11.0346 11.9382 11.153 14.1638 11.2714C16.3894 11.3898 17.1707 11.153 17.1471 10.4901C17.1234 9.82711 15.7501 9.28255 14.7794 9.28255C13.8087 9.28255 10.2808 9.11681 9.16804 8.71431C8.05524 8.31181 7.7948 7.53046 6.11376 7.00958C4.43272 6.48869 2.75168 6.72546 1.78094 6.86753Z" fill="#151515"/>
<path d="M13.714 7.39639C12.7502 6.87916 11.3249 8.33877 10.9768 8.71431C11.2236 8.71431 12.2795 8.73586 14.528 8.82205C16.2295 8.74609 16.983 9.20819 17.1471 9.44873L19.9592 7.00958C19.6744 6.03268 18.6693 6.47782 17.7578 7.00957C17.4589 6.25231 16.3506 6.77954 15.888 7.18435C15.888 6.67513 14.8128 6.5913 13.714 7.39639Z" fill="#151515"/>
</svg>
