<svg width="24" height="24" viewBox="0 0 24 24" fill="none" xmlns="http://www.w3.org/2000/svg">
<path id="Vector" d="M13.2936 2.19015e-06C13.6464 2.19015e-06 13.962 0.2196 14.0808 0.548396L14.9279 2.89677C15.2315 2.97237 15.4919 3.04797 15.7127 3.12716C15.9539 3.21356 16.2647 3.34436 16.6487 3.52316L18.6214 2.47917C18.7824 2.39386 18.9668 2.36307 19.1468 2.39141C19.3268 2.41975 19.4927 2.50571 19.6198 2.63637L21.3549 4.43035C21.5853 4.66915 21.6501 5.01834 21.5205 5.32314L20.5953 7.49151C20.7489 7.77351 20.8713 8.01471 20.9649 8.2163C21.0657 8.4359 21.1905 8.7383 21.3393 9.12829L23.4956 10.0523C23.8196 10.1903 24.02 10.5143 23.9984 10.8611L23.84 13.351C23.8292 13.5128 23.7711 13.6678 23.673 13.7969C23.5749 13.9259 23.441 14.0234 23.288 14.077L21.2457 14.803C21.1869 15.085 21.1257 15.3262 21.0609 15.5302C20.9564 15.8453 20.8371 16.1552 20.7033 16.459L21.7293 18.727C21.8017 18.8863 21.8212 19.0647 21.7849 19.2359C21.7486 19.4071 21.6585 19.5623 21.5277 19.6786L19.5766 21.4209C19.4481 21.5352 19.2877 21.6075 19.117 21.6281C18.9463 21.6487 18.7734 21.6166 18.6214 21.5361L16.6103 20.4706C16.2956 20.6372 15.971 20.7842 15.6383 20.9109L14.7599 21.2397L13.98 23.3997C13.9222 23.5579 13.8179 23.6949 13.6808 23.7928C13.5438 23.8906 13.3804 23.9448 13.212 23.9481L10.9321 23.9997C10.7592 24.0042 10.5892 23.9551 10.4455 23.859C10.3017 23.763 10.1912 23.6247 10.1293 23.4633L9.21012 21.0309C8.89651 20.9238 8.586 20.8077 8.27896 20.683C8.02782 20.5743 7.78049 20.457 7.53738 20.3314L5.25746 21.3057C5.10723 21.3698 4.94162 21.3889 4.78077 21.3605C4.61992 21.3322 4.47077 21.2577 4.35149 21.1461L2.66435 19.5634C2.53874 19.446 2.45319 19.2922 2.41982 19.1236C2.38644 18.955 2.40692 18.7801 2.47836 18.6238L3.45872 16.4878C3.32834 16.2348 3.20746 15.977 3.09633 15.715C2.96662 15.3943 2.84657 15.0698 2.73635 14.7418L0.588421 14.0878C0.413828 14.0351 0.261545 13.9261 0.155223 13.7779C0.0489015 13.6297 -0.00550937 13.4505 0.000440948 13.2682L0.084438 10.9631C0.0904169 10.8127 0.1374 10.6668 0.220307 10.5411C0.303214 10.4155 0.418888 10.3149 0.554822 10.2503L2.80834 9.16789C2.91274 8.7851 3.00394 8.4875 3.08433 8.2703C3.19754 7.9802 3.32325 7.69514 3.46112 7.41591L2.48435 5.35194C2.41023 5.1952 2.38772 5.01899 2.42006 4.84865C2.4524 4.67831 2.53793 4.52261 2.66435 4.40395L4.34909 2.81277C4.46719 2.70138 4.61497 2.62649 4.77463 2.59711C4.93429 2.56773 5.09904 2.58511 5.24906 2.64717L7.52658 3.58796C7.77857 3.41996 8.00656 3.28436 8.21296 3.17516C8.45895 3.04437 8.78774 2.90757 9.20172 2.75997L9.9937 0.550795C10.0522 0.38912 10.1593 0.249457 10.3002 0.150878C10.441 0.0522986 10.6089 -0.000391496 10.7809 2.19015e-06H13.2936ZM12.0288 8.4227C10.0285 8.4227 8.40735 10.0247 8.40735 12.0023C8.40735 13.9798 10.0285 15.583 12.0288 15.583C14.028 15.583 15.6491 13.9798 15.6491 12.0023C15.6491 10.0247 14.0292 8.4227 12.0288 8.4227Z" fill="#151515"/>
</svg>
