<svg width="27" height="28" viewBox="0 0 27 28" fill="none" xmlns="http://www.w3.org/2000/svg">
<path id="Vector" fill-rule="evenodd" clip-rule="evenodd" d="M6.84314 0H20.1568C21.7794 0 22.59 1.46028e-07 23.2452 0.228195C23.8629 0.447133 24.4219 0.805562 24.8786 1.27563C25.3353 1.74569 25.6775 2.31474 25.8785 2.93854C26.0997 3.61332 26.0997 4.4477 26.0997 6.11787V25.723C26.0997 26.9242 24.7207 27.5626 23.8486 26.7646C23.6039 26.5385 23.2829 26.4129 22.9498 26.4129C22.6166 26.4129 22.2957 26.5385 22.051 26.7646L21.3748 27.3834C20.9461 27.7798 20.3837 28 19.7999 28C19.216 28 18.6536 27.7798 18.2249 27.3834C17.7962 26.987 17.2338 26.7668 16.6499 26.7668C16.066 26.7668 15.5036 26.987 15.075 27.3834C14.6463 27.7798 14.0839 28 13.5 28C12.9161 28 12.3537 27.7798 11.925 27.3834C11.4963 26.987 10.9339 26.7668 10.3501 26.7668C9.76618 26.7668 9.20378 26.987 8.7751 27.3834C8.34642 27.7798 7.78401 28 7.20013 28C6.61625 28 6.05385 27.7798 5.62517 27.3834L4.94898 26.7646C4.70428 26.5385 4.38336 26.4129 4.0502 26.4129C3.71704 26.4129 3.39611 26.5385 3.15142 26.7646C2.27924 27.5626 0.900269 26.9242 0.900269 25.723V6.11787C0.900269 4.4477 0.900269 3.61192 1.12146 2.93994C1.54145 1.66176 2.51443 0.659386 3.75481 0.228195C4.40999 1.46028e-07 5.22057 0 6.84314 0ZM6.50015 6.64986C6.22167 6.64986 5.95461 6.76048 5.7577 6.95739C5.56079 7.15429 5.45017 7.42136 5.45017 7.69983C5.45017 7.9783 5.56079 8.24537 5.7577 8.44228C5.95461 8.63919 6.22167 8.74981 6.50015 8.74981H7.20013C7.4786 8.74981 7.74567 8.63919 7.94258 8.44228C8.13949 8.24537 8.25011 7.9783 8.25011 7.69983C8.25011 7.42136 8.13949 7.15429 7.94258 6.95739C7.74567 6.76048 7.4786 6.64986 7.20013 6.64986H6.50015ZM11.4 6.64986C11.1216 6.64986 10.8545 6.76048 10.6576 6.95739C10.4607 7.15429 10.3501 7.42136 10.3501 7.69983C10.3501 7.9783 10.4607 8.24537 10.6576 8.44228C10.8545 8.63919 11.1216 8.74981 11.4 8.74981H20.4998C20.7783 8.74981 21.0454 8.63919 21.2423 8.44228C21.4392 8.24537 21.5498 7.9783 21.5498 7.69983C21.5498 7.42136 21.4392 7.15429 21.2423 6.95739C21.0454 6.76048 20.7783 6.64986 20.4998 6.64986H11.4ZM6.50015 11.5497C6.22167 11.5497 5.95461 11.6604 5.7577 11.8573C5.56079 12.0542 5.45017 12.3213 5.45017 12.5997C5.45017 12.8782 5.56079 13.1453 5.7577 13.3422C5.95461 13.5391 6.22167 13.6497 6.50015 13.6497H7.20013C7.4786 13.6497 7.74567 13.5391 7.94258 13.3422C8.13949 13.1453 8.25011 12.8782 8.25011 12.5997C8.25011 12.3213 8.13949 12.0542 7.94258 11.8573C7.74567 11.6604 7.4786 11.5497 7.20013 11.5497H6.50015ZM11.4 11.5497C11.1216 11.5497 10.8545 11.6604 10.6576 11.8573C10.4607 12.0542 10.3501 12.3213 10.3501 12.5997C10.3501 12.8782 10.4607 13.1453 10.6576 13.3422C10.8545 13.5391 11.1216 13.6497 11.4 13.6497H20.4998C20.7783 13.6497 21.0454 13.5391 21.2423 13.3422C21.4392 13.1453 21.5498 12.8782 21.5498 12.5997C21.5498 12.3213 21.4392 12.0542 21.2423 11.8573C21.0454 11.6604 20.7783 11.5497 20.4998 11.5497H11.4ZM6.50015 16.4496C6.22167 16.4496 5.95461 16.5603 5.7577 16.7572C5.56079 16.9541 5.45017 17.2211 5.45017 17.4996C5.45017 17.7781 5.56079 18.0452 5.7577 18.2421C5.95461 18.439 6.22167 18.5496 6.50015 18.5496H7.20013C7.4786 18.5496 7.74567 18.439 7.94258 18.2421C8.13949 18.0452 8.25011 17.7781 8.25011 17.4996C8.25011 17.2211 8.13949 16.9541 7.94258 16.7572C7.74567 16.5603 7.4786 16.4496 7.20013 16.4496H6.50015ZM11.4 16.4496C11.1216 16.4496 10.8545 16.5603 10.6576 16.7572C10.4607 16.9541 10.3501 17.2211 10.3501 17.4996C10.3501 17.7781 10.4607 18.0452 10.6576 18.2421C10.8545 18.439 11.1216 18.5496 11.4 18.5496H20.4998C20.7783 18.5496 21.0454 18.439 21.2423 18.2421C21.4392 18.0452 21.5498 17.7781 21.5498 17.4996C21.5498 17.2211 21.4392 16.9541 21.2423 16.7572C21.0454 16.5603 20.7783 16.4496 20.4998 16.4496H11.4Z" fill="#151515"/>
</svg>
