<svg width="16" height="14" viewBox="0 0 16 14" fill="none" xmlns="http://www.w3.org/2000/svg">
<path id="Vector" d="M13.6 0H2.4C1.2688 0 0.7032 -4.63597e-08 0.352 0.320448C4.76837e-08 0.640896 0 1.15735 0 2.18947V2.72614C0 3.53271 0 3.93638 0.208 4.27082C0.416 4.60527 0.7944 4.81372 1.5536 5.22906L3.884 6.50463C4.3928 6.78307 4.648 6.9223 4.8304 7.0763C5.2096 7.39597 5.4432 7.77242 5.5488 8.2352C5.6 8.45609 5.6 8.71587 5.6 9.23466V11.3113C5.6 12.0184 5.6 12.3722 5.8016 12.6476C6.0032 12.9237 6.3616 13.0598 7.0768 13.332C8.58 13.9029 9.3312 14.1884 9.8656 13.8633C10.4 13.5389 10.4 12.7961 10.4 11.3106V9.23388C10.4 8.71587 10.4 8.45609 10.4512 8.23442C10.5517 7.7811 10.8047 7.37329 11.1704 7.07552C11.352 6.9223 11.6072 6.78307 12.116 6.50385L14.4464 5.22828C15.2048 4.81372 15.5848 4.60605 15.792 4.2716C16 3.93715 16 3.53271 16 2.72536V2.18869C16 1.15735 16 0.640896 15.648 0.320448C15.2976 -4.63597e-08 14.732 0 13.6 0Z" fill="#151515"/>
</svg>
