<svg width="317" height="142" viewBox="0 0 317 142" fill="none" xmlns="http://www.w3.org/2000/svg">
<path d="M49.56 110.5L47.5861 110.822L47.8597 112.5H49.56V110.5ZM40.845 57.055L42.8189 56.7332L38.8711 56.7332L40.845 57.055ZM32.13 110.5V112.5L33.8303 112.5L34.1039 110.822L32.13 110.5ZM23.52 110.5L21.5421 110.797L21.7976 112.5H23.52V110.5ZM12.495 37L12.495 35H10.1726L10.5171 37.2967L12.495 37ZM20.895 37L22.8772 36.7338L22.6443 35H20.895V37ZM28.455 93.28L26.4728 93.5463L30.4286 93.6041L28.455 93.28ZM37.695 37V35H35.9966L35.7214 36.676L37.695 37ZM44.205 37L46.1802 36.6862L45.9123 35H44.205V37ZM53.13 93.175L51.1548 93.4889L55.1116 93.4454L53.13 93.175ZM60.795 37V35H59.0494L58.8134 36.7296L60.795 37ZM69.195 37L71.1729 37.2967L71.5174 35L69.195 35V37ZM58.17 110.5V112.5H59.8924L60.1479 110.797L58.17 110.5ZM51.5339 110.178L42.8189 56.7332L38.8711 57.3769L47.5861 110.822L51.5339 110.178ZM38.8711 56.7332L30.1561 110.178L34.1039 110.822L42.8189 57.3769L38.8711 56.7332ZM32.13 108.5H23.52V112.5H32.13V108.5ZM25.4979 110.203L14.4729 36.7033L10.5171 37.2967L21.5421 110.797L25.4979 110.203ZM12.495 39H20.895V35H12.495L12.495 39ZM18.9128 37.2663L26.4728 93.5463L30.4372 93.0138L22.8772 36.7338L18.9128 37.2663ZM30.4286 93.6041L39.6686 37.324L35.7214 36.676L26.4814 92.956L30.4286 93.6041ZM37.695 39L44.205 39V35L37.695 35L37.695 39ZM42.2298 37.3138L51.1548 93.4889L55.1052 92.8612L46.1802 36.6862L42.2298 37.3138ZM55.1116 93.4454L62.7766 37.2704L58.8134 36.7296L51.1484 92.9046L55.1116 93.4454ZM60.795 39H69.195V35H60.795V39ZM67.2171 36.7033L56.1921 110.203L60.1479 110.797L71.1729 37.2967L67.2171 36.7033ZM58.17 108.5H49.56L49.56 112.5H58.17L58.17 108.5ZM86.2181 77.215L86.2181 75.215H84.2181L84.2181 77.215H86.2181ZM86.2181 103.78H84.2181V105.78H86.2181V103.78ZM104.488 103.78H106.488V101.78H104.488V103.78ZM104.488 110.5V112.5H106.488V110.5H104.488ZM77.8181 110.5L75.8181 110.5V112.5L77.8181 112.5V110.5ZM77.8181 37V35H75.8181V37H77.8181ZM104.173 37H106.173V35H104.173V37ZM104.173 43.72V45.72H106.173V43.72H104.173ZM86.2181 43.72V41.72H84.2181V43.72H86.2181ZM86.2181 70.495H84.2181V72.495H86.2181V70.495ZM102.598 70.495H104.598V68.495H102.598V70.495ZM102.598 77.215V79.215H104.598V77.215H102.598ZM84.2181 77.215V103.78H88.2181V77.215H84.2181ZM86.2181 105.78H104.488V101.78H86.2181V105.78ZM102.488 103.78V110.5H106.488V103.78H102.488ZM104.488 108.5H77.8181V112.5H104.488V108.5ZM79.8181 110.5L79.8181 37H75.8181L75.8181 110.5L79.8181 110.5ZM77.8181 39L104.173 39V35L77.8181 35V39ZM102.173 37V43.72H106.173V37H102.173ZM104.173 41.72H86.2181V45.72L104.173 45.72V41.72ZM84.2181 43.72V70.495H88.2181V43.72L84.2181 43.72ZM86.2181 72.495H102.598V68.495H86.2181V72.495ZM100.598 70.495L100.598 77.215H104.598L104.598 70.495H100.598ZM102.598 75.215H86.2181L86.2181 79.215H102.598L102.598 75.215ZM124.372 102.1L122.667 103.145L122.675 103.158L122.683 103.17L124.372 102.1ZM135.503 102.52L133.838 101.411L133.833 101.418L133.829 101.426L135.503 102.52ZM138.023 91.915L138.278 89.9314L136.198 89.664L136.029 91.7534L138.023 91.915ZM145.373 92.86L147.365 93.0358L147.534 91.1214L145.628 90.8764L145.373 92.86ZM140.543 107.875L139.058 106.535L139.056 106.537L140.543 107.875ZM118.283 106.93L116.733 108.195L116.733 108.195L118.283 106.93ZM118.283 40.57L119.832 41.8348L119.832 41.8348L118.283 40.57ZM140.333 39.1L138.918 40.5142L138.928 40.5242L138.938 40.534L140.333 39.1ZM144.953 52.225L145.431 54.1669L147.096 53.7563L146.945 52.0479L144.953 52.225ZM137.288 54.115L135.296 54.3017L135.513 56.6125L137.766 56.0569L137.288 54.115ZM134.873 44.875L133.188 45.9531L133.213 45.9927L133.24 46.0311L134.873 44.875ZM124.372 45.61L126.078 46.6552L126.085 46.6432L126.092 46.6311L124.372 45.61ZM120.378 90.235C120.378 93.173 120.547 95.7152 120.904 97.8379C121.257 99.9391 121.814 101.752 122.667 103.145L126.078 101.055C125.601 100.278 125.16 99.0284 124.849 97.1747C124.54 95.3423 124.378 93.037 124.378 90.235L120.378 90.235ZM122.683 103.17C124.373 105.839 126.895 107.25 130.043 107.25V103.25C128.29 103.25 127.032 102.561 126.062 101.03L122.683 103.17ZM130.043 107.25C133.067 107.25 135.565 106.079 137.176 103.615L133.829 101.426C133.06 102.601 131.918 103.25 130.043 103.25V107.25ZM137.167 103.629C138.739 101.27 139.595 97.264 140.016 92.0767L136.029 91.7534C135.61 96.9261 134.786 99.9897 133.838 101.411L137.167 103.629ZM137.767 93.8987L145.117 94.8437L145.628 90.8764L138.278 89.9314L137.767 93.8987ZM143.38 92.6842C142.76 99.7123 141.197 104.165 139.058 106.535L142.027 109.215C145.068 105.845 146.725 100.288 147.365 93.0358L143.38 92.6842ZM139.056 106.537C137.01 108.81 133.976 110.075 129.623 110.075V114.075C134.789 114.075 139.035 112.54 142.029 109.213L139.056 106.537ZM129.623 110.075C125.412 110.075 122.221 108.591 119.832 105.665L116.733 108.195C119.944 112.129 124.313 114.075 129.623 114.075V110.075ZM119.832 105.665C117.506 102.816 116.083 97.1489 116.083 88.03H112.083C112.083 97.2512 113.459 104.184 116.733 108.195L119.832 105.665ZM116.083 88.03L116.083 59.47H112.083L112.083 88.03H116.083ZM116.083 59.47C116.083 50.3512 117.506 44.6843 119.832 41.8348L116.733 39.3053C113.459 43.3158 112.083 50.2489 112.083 59.47H116.083ZM119.832 41.8348C122.227 38.9008 125.387 37.425 129.518 37.425V33.425C124.268 33.425 119.938 35.3792 116.733 39.3053L119.832 41.8348ZM129.518 37.425C133.95 37.425 136.966 38.5617 138.918 40.5142L141.747 37.6858C138.799 34.7383 134.605 33.425 129.518 33.425V37.425ZM138.938 40.534C140.931 42.4709 142.412 46.238 142.96 52.4021L146.945 52.0479C146.373 45.6121 144.774 40.6291 141.727 37.666L138.938 40.534ZM144.474 50.2832L136.809 52.1732L137.766 56.0569L145.431 54.1669L144.474 50.2832ZM139.279 53.9283C138.856 49.4222 138.026 45.8668 136.505 43.719L133.24 46.0311C134.099 47.2433 134.879 49.8479 135.296 54.3017L139.279 53.9283ZM136.557 43.7969C135.023 41.4003 132.629 40.25 129.728 40.25V44.25C131.446 44.25 132.482 44.8497 133.188 45.9531L136.557 43.7969ZM129.728 40.25C126.655 40.25 124.273 41.8594 122.653 44.5889L126.092 46.6311C127.132 44.8807 128.32 44.25 129.728 44.25V40.25ZM122.667 44.5649C121.811 45.9627 121.255 47.7983 120.903 49.9303C120.547 52.0861 120.378 54.6791 120.378 57.685H124.378C124.378 54.811 124.541 52.4514 124.85 50.5823C125.162 48.6893 125.604 47.4273 126.078 46.6552L122.667 44.5649ZM120.378 57.685L120.378 90.235L124.378 90.235L124.378 57.685H120.378ZM179.08 110.5H177.08V112.5H179.08V110.5ZM179.08 77.215H181.08V75.215H179.08V77.215ZM163.225 77.215V75.215H161.225V77.215H163.225ZM163.225 110.5V112.5L165.225 112.5V110.5L163.225 110.5ZM154.825 110.5H152.825V112.5H154.825V110.5ZM154.825 37V35H152.825V37H154.825ZM163.225 37H165.225V35H163.225V37ZM163.225 70.495H161.225V72.495H163.225V70.495ZM179.08 70.495V72.495H181.08V70.495H179.08ZM179.08 37V35H177.08V37H179.08ZM187.375 37H189.375V35H187.375V37ZM187.375 110.5V112.5H189.375V110.5H187.375ZM181.08 110.5V77.215H177.08V110.5H181.08ZM179.08 75.215L163.225 75.215V79.215L179.08 79.215V75.215ZM161.225 77.215V110.5L165.225 110.5V77.215L161.225 77.215ZM163.225 108.5H154.825V112.5H163.225V108.5ZM156.825 110.5L156.825 37H152.825L152.825 110.5H156.825ZM154.825 39L163.225 39V35L154.825 35V39ZM161.225 37L161.225 70.495H165.225L165.225 37H161.225ZM163.225 72.495H179.08V68.495H163.225V72.495ZM181.08 70.495L181.08 37H177.08L177.08 70.495H181.08ZM179.08 39H187.375V35H179.08V39ZM185.375 37L185.375 110.5H189.375L189.375 37H185.375ZM187.375 108.5H179.08V112.5H187.375V108.5ZM217.462 81.1L218.708 79.5355L218.679 79.5124L218.649 79.4904L217.462 81.1ZM209.062 74.905L210.249 73.2954L210.236 73.2851L210.221 73.2751L209.062 74.905ZM203.707 39.835L202.259 38.4557L202.258 38.4566L203.707 39.835ZM226.282 39.52L224.85 40.9158L224.859 40.9251L224.868 40.9342L226.282 39.52ZM231.112 54.115L231.549 56.0668L233.243 55.6878L233.106 53.9571L231.112 54.115ZM223.132 55.9L221.133 55.9625L221.209 58.3797L223.569 57.8518L223.132 55.9ZM208.957 62.095L207.06 62.7275L207.069 62.7557L207.08 62.7835L208.957 62.095ZM213.262 67.765L212.013 69.3268L212.039 69.3476L212.066 69.3675L213.262 67.765ZM221.557 73.96L220.361 75.5625L220.378 75.5752L220.395 75.5875L221.557 73.96ZM226.282 77.95L227.736 76.5768L227.736 76.5768L226.282 77.95ZM229.642 84.04L227.77 84.7423L227.78 84.7709L227.792 84.7991L229.642 84.04ZM226.912 107.98L225.551 106.514L225.543 106.523L225.534 106.531L226.912 107.98ZM203.497 107.245L201.988 108.557L201.988 108.557L203.497 107.245ZM198.352 90.025L198.011 88.0544L196.22 88.3648L196.358 90.1771L198.352 90.025ZM206.227 88.66L208.225 88.566L208.119 86.3024L205.886 86.6894L206.227 88.66ZM208.747 101.365L206.999 102.336L207.009 102.355L207.02 102.373L208.747 101.365ZM225.132 94.015C225.132 87.9147 223.044 82.9879 218.708 79.5355L216.217 82.6646C219.441 85.2321 221.132 88.9153 221.132 94.015H225.132ZM218.649 79.4904L210.249 73.2954L207.875 76.5146L216.275 82.7096L218.649 79.4904ZM210.221 73.2751C204.525 69.2241 201.612 63.2613 201.612 55.06L197.612 55.06C197.612 64.3587 201 71.626 207.903 76.5349L210.221 73.2751ZM201.612 55.06C201.612 47.9071 202.978 43.5037 205.156 41.2135L202.258 38.4566C198.977 41.9064 197.612 47.6529 197.612 55.06L201.612 55.06ZM205.156 41.2143C207.513 38.7393 210.732 37.425 215.047 37.425V33.425C209.843 33.425 205.502 35.0508 202.259 38.4557L205.156 41.2143ZM215.047 37.425C219.49 37.425 222.661 38.669 224.85 40.9158L227.715 38.1243C224.584 34.9111 220.265 33.425 215.047 33.425V37.425ZM224.868 40.9342C227 43.0664 228.567 47.3102 229.119 54.273L233.106 53.9571C232.538 46.7799 230.884 41.2936 227.697 38.1058L224.868 40.9342ZM230.676 52.1633L222.696 53.9483L223.569 57.8518L231.549 56.0668L230.676 52.1633ZM225.131 55.8376C224.988 51.2345 224.242 47.4767 222.679 44.8089C221.028 41.99 218.49 40.46 215.257 40.46V44.46C216.994 44.46 218.255 45.17 219.228 46.8311C220.29 48.6434 220.997 51.6056 221.133 55.9625L225.131 55.8376ZM215.257 40.46C212.192 40.46 209.689 41.707 208.062 44.2405C206.532 46.6225 205.907 49.9401 205.907 53.905H209.907C209.907 50.2399 210.507 47.835 211.428 46.402C212.251 45.1205 213.423 44.46 215.257 44.46V40.46ZM205.907 53.905C205.907 57.3806 206.266 60.3468 207.06 62.7275L210.855 61.4626C210.248 59.6432 209.907 57.1495 209.907 53.905H205.907ZM207.08 62.7835C207.999 65.2901 209.686 67.4649 212.013 69.3268L214.512 66.2033C212.639 64.7051 211.456 63.0999 210.835 61.4065L207.08 62.7835ZM212.066 69.3675L220.361 75.5625L222.754 72.3576L214.459 66.1626L212.066 69.3675ZM220.395 75.5875C222.287 76.9391 223.754 78.1856 224.828 79.3233L227.736 76.5768C226.431 75.1945 224.748 73.781 222.72 72.3326L220.395 75.5875ZM224.828 79.3233C225.749 80.2978 226.755 82.0369 227.77 84.7423L231.515 83.3378C230.43 80.4432 229.196 78.1223 227.736 76.5768L224.828 79.3233ZM227.792 84.7991C228.79 87.231 229.322 90.2153 229.322 93.805H233.322C233.322 89.8347 232.735 86.3091 231.493 83.2809L227.792 84.7991ZM229.322 93.805C229.322 100.327 227.88 104.352 225.551 106.514L228.273 109.446C231.825 106.148 233.322 100.723 233.322 93.805H229.322ZM225.534 106.531C223.124 108.823 219.746 110.075 215.152 110.075V114.075C220.499 114.075 224.96 112.597 228.291 109.429L225.534 106.531ZM215.152 110.075C210.656 110.075 207.363 108.642 205.007 105.933L201.988 108.557C205.232 112.288 209.709 114.075 215.152 114.075V110.075ZM205.007 105.933C202.652 103.225 200.97 98.0464 200.347 89.8729L196.358 90.1771C196.995 98.5236 198.743 104.825 201.988 108.557L205.007 105.933ZM198.694 91.9956L206.569 90.6306L205.886 86.6894L198.011 88.0544L198.694 91.9956ZM204.23 88.754C204.512 94.7512 205.36 99.3864 206.999 102.336L210.496 100.394C209.335 98.3036 208.503 94.4689 208.225 88.566L204.23 88.754ZM207.02 102.373C208.794 105.414 211.434 107.145 214.837 107.145V103.145C213.061 103.145 211.641 102.356 210.475 100.357L207.02 102.373ZM214.837 107.145C218.095 107.145 220.826 106.021 222.662 103.558C224.416 101.205 225.132 97.9154 225.132 94.015H221.132C221.132 97.5347 220.466 99.8104 219.455 101.167C218.526 102.414 217.11 103.145 214.837 103.145V107.145ZM250.793 77.215V75.215H248.793V77.215H250.793ZM250.793 103.78H248.793V105.78H250.793V103.78ZM269.063 103.78H271.063V101.78H269.063V103.78ZM269.063 110.5V112.5H271.063V110.5H269.063ZM242.393 110.5H240.393V112.5H242.393V110.5ZM242.393 37V35H240.393V37H242.393ZM268.748 37H270.748V35H268.748V37ZM268.748 43.72V45.72H270.748V43.72H268.748ZM250.793 43.72V41.72H248.793V43.72H250.793ZM250.793 70.495H248.793V72.495H250.793V70.495ZM267.173 70.495H269.173V68.495H267.173V70.495ZM267.173 77.215V79.215H269.173V77.215H267.173ZM248.793 77.215V103.78H252.793V77.215H248.793ZM250.793 105.78L269.063 105.78V101.78L250.793 101.78V105.78ZM267.063 103.78V110.5H271.063V103.78H267.063ZM269.063 108.5L242.393 108.5V112.5L269.063 112.5V108.5ZM244.393 110.5L244.393 37H240.393L240.393 110.5H244.393ZM242.393 39L268.748 39V35L242.393 35V39ZM266.748 37V43.72H270.748V37H266.748ZM268.748 41.72L250.793 41.72V45.72L268.748 45.72V41.72ZM248.793 43.72L248.793 70.495H252.793L252.793 43.72H248.793ZM250.793 72.495H267.173V68.495H250.793V72.495ZM265.173 70.495V77.215H269.173V70.495H265.173ZM267.173 75.215L250.793 75.215V79.215L267.173 79.215V75.215ZM280.128 110.5H278.128V112.5H280.128V110.5ZM280.128 37V35H278.128V37H280.128ZM288.528 37H290.528V35H288.528V37ZM288.528 103.78H286.528V105.78H288.528V103.78ZM304.803 103.78H306.803V101.78H304.803V103.78ZM304.803 110.5V112.5H306.803V110.5H304.803ZM282.128 110.5L282.128 37H278.128L278.128 110.5H282.128ZM280.128 39H288.528V35H280.128V39ZM286.528 37L286.528 103.78H290.528L290.528 37H286.528ZM288.528 105.78L304.803 105.78V101.78L288.528 101.78V105.78ZM302.803 103.78V110.5H306.803V103.78H302.803ZM304.803 108.5L280.128 108.5V112.5L304.803 112.5V108.5Z" fill="#F7931A"/>
</svg>
